<?xml version="1.0" encoding="utf-8"?>
<!-- Generator: Adobe Illustrator 23.0.4, SVG Export Plug-In . SVG Version: 6.00 Build 0)  -->
<svg version="1.1" id="Layer_1" xmlns="http://www.w3.org/2000/svg" xmlns:xlink="http://www.w3.org/1999/xlink" x="0px" y="0px"
	 viewBox="0 0 597.5 191" style="enable-background:new 0 0 597.5 191;" xml:space="preserve">
<style type="text/css">
	.st0{fill:#11111;}
</style>
<g>
	<path class="st0" d="M95.5,191C42.8,191,0,148.2,0,95.5S42.8,0,95.5,0S191,42.9,191,95.5S148.2,191,95.5,191z M95.5,7.8
		C47.1,7.8,7.8,47.1,7.8,95.5s39.3,87.7,87.7,87.7s87.7-39.4,87.7-87.7S143.9,7.8,95.5,7.8z"/>
	<polygon class="st0" points="104.8,77 104.8,74.9 84.8,74.9 84.8,77 90.6,77 90.6,115.7 84.8,115.7 84.8,118 104.8,118 
		104.8,115.7 99.1,115.7 99.1,77 	"/>
	<polygon class="st0" points="66.8,77 72.2,77 72.2,74.9 59.5,74.9 59.5,77 64.5,77 54,94.4 53.8,94.1 43.8,77 48.5,77 48.5,74.9 
		27.8,74.9 27.8,77 33.7,77 45.3,96.4 33.6,115.7 27.8,115.7 27.8,118 40.6,118 40.6,115.7 36,115.7 46.5,98.4 48.2,101.4 
		48.8,102.2 56.5,115.7 51.5,115.7 51.5,118 72.2,118 72.2,115.7 66.7,115.7 55.2,96.4 	"/>
	<polygon class="st0" points="156.2,77 161.6,77 161.6,74.9 148.9,74.9 148.9,77 153.9,77 143.4,94.4 143.2,94.1 133.1,77 137.9,77 
		137.9,74.9 117.2,74.9 117.2,77 123.1,77 134.7,96.4 123,115.7 117.2,115.7 117.2,118 130,118 130,115.7 125.4,115.7 135.9,98.4 
		137.6,101.4 138.1,102.2 145.9,115.7 140.9,115.7 140.9,118 161.6,118 161.6,115.7 156.1,115.7 144.6,96.4 	"/>
</g>
<g>
	<path class="st0" d="M248.7,94.6l-1.3-1.4l0.1,1.6v23.5h-9.1V73.8l0.1,0.1L263.9,97l1.6,1.8l-0.1-1.8V75h9.1v44.5l-0.1-0.1
		L248.7,94.6z"/>
	<path class="st0" d="M295.4,75h9.1v43.2h-9.1V75z"/>
	<path class="st0" d="M335.5,94.6l-1.3-1.4l0.1,1.6v23.5h-9.1V73.8l0.1,0.1L350.7,97l1.6,1.8l-0.1-1.8V75h9.1v44.5l-0.1-0.1
		L335.5,94.6z"/>
	<path class="st0" d="M382.2,75h25.8v7.9h-16.8v9.7h15.5v7.8h-15.5v10.2h16.8v7.6h-25.8V75z"/>
	<path class="st0" d="M443.5,82.7v35.5h-9.1V82.7H424V75h29.8v7.7H443.5z"/>
	<path class="st0" d="M471.5,75h25.8v7.9h-16.8v9.7H496v7.8h-15.5v10.2h16.8v7.6h-25.8V75z"/>
	<path class="st0" d="M516.4,75h25.8v7.9h-16.8v9.7h15.5v7.8h-15.5v10.2h16.8v7.6h-25.8V75z"/>
	<path class="st0" d="M571.6,94.6l-1.3-1.4l0.1,1.6v23.5h-9.1V73.8l0.1,0.1L586.8,97l1.7,1.8l-0.1-1.8V75h9.1v44.5l-0.1-0.1
		L571.6,94.6z"/>
</g>
</svg>
